<svg xmlns="http://www.w3.org/2000/svg" viewBox="0 0 64 64" fill="none">
  <!-- Background circle -->
  <circle cx="32" cy="32" r="32" fill="#1a472a"/>
  <!-- Stylised brain outline -->
  <path d="M22 28c0-5.5 4-10 10-10s10 4.5 10 10c0 3-1.2 5.6-3 7.4V40a2 2 0 01-2 2h-10a2 2 0 01-2-2v-4.6C23.2 33.6 22 31 22 28z" fill="none" stroke="#d4a574" stroke-width="2.5" stroke-linejoin="round"/>
  <!-- Brain crease lines -->
  <path d="M32 18v4M26 26c2-1 4-1 6 0M38 26c-2-1-4-1-6 0" stroke="#d4a574" stroke-width="1.5" stroke-linecap="round"/>
  <!-- Spine/column below -->
  <rect x="30" y="42" width="4" height="8" rx="1" fill="#d4a574"/>
  <!-- Letters DNF small -->
</svg>
